<?xml version="1.0" encoding="UTF-8" standalone="no"?>
<!DOCTYPE svg PUBLIC "-//W3C//DTD SVG 1.1//EN"
 "http://www.w3.org/Graphics/SVG/1.1/DTD/svg11.dtd">
<!-- Generated by graphviz version 2.38.0 (20140413.2041)
 -->
<!-- Title: controllers_diagram Pages: 1 -->
<svg width="1209pt" height="1172pt"
 viewBox="0.00 0.00 1208.50 1171.50" xmlns="http://www.w3.org/2000/svg" xmlns:xlink="http://www.w3.org/1999/xlink">
<g id="graph0" class="graph" transform="scale(1 1) rotate(0) translate(524 648)">
<title>controllers_diagram</title>
<polygon fill="none" stroke="none" points="-524,523.5 -524,-648 684.5,-648 684.5,523.5 -524,523.5"/>
<!-- _diagram_info -->
<g id="node1" class="node"><title>_diagram_info</title>
<text text-anchor="start" x="-372" y="176.4" font-family="Times,serif" font-size="13.00">Controllers diagram</text>
<text text-anchor="start" x="-372" y="190.4" font-family="Times,serif" font-size="13.00">Date: Feb 14 2018 &#45; 11:33</text>
<text text-anchor="start" x="-372" y="204.4" font-family="Times,serif" font-size="13.00">Migration version: 20180207125727</text>
<text text-anchor="start" x="-372" y="218.4" font-family="Times,serif" font-size="13.00">Generated by RailRoady 1.5.3</text>
<text text-anchor="start" x="-372" y="232.4" font-family="Times,serif" font-size="13.00">http://railroady.prestonlee.com</text>
</g>
<!-- Api::V1::AnnotationsController -->
<g id="node2" class="node"><title>Api::V1::AnnotationsController</title>
<path fill="none" stroke="black" d="M-408,-280.5C-408,-280.5 -242,-280.5 -242,-280.5 -236,-280.5 -230,-286.5 -230,-292.5 -230,-292.5 -230,-363.5 -230,-363.5 -230,-369.5 -236,-375.5 -242,-375.5 -242,-375.5 -408,-375.5 -408,-375.5 -414,-375.5 -420,-369.5 -420,-363.5 -420,-363.5 -420,-292.5 -420,-292.5 -420,-286.5 -414,-280.5 -408,-280.5"/>
<text text-anchor="middle" x="-325" y="-360.3" font-family="Times,serif" font-size="14.00">Api::V1::AnnotationsController</text>
<polyline fill="none" stroke="black" points="-420,-352.5 -230,-352.5 "/>
<polyline fill="none" stroke="black" points="-420,-328.5 -230,-328.5 "/>
<polyline fill="none" stroke="black" points="-420,-304.5 -230,-304.5 "/>
</g>
<!-- Api::V1::AnnotationCategoriesController -->
<g id="node3" class="node"><title>Api::V1::AnnotationCategoriesController</title>
<path fill="none" stroke="black" d="M432,219.5C432,219.5 650,219.5 650,219.5 656,219.5 662,213.5 662,207.5 662,207.5 662,136.5 662,136.5 662,130.5 656,124.5 650,124.5 650,124.5 432,124.5 432,124.5 426,124.5 420,130.5 420,136.5 420,136.5 420,207.5 420,207.5 420,213.5 426,219.5 432,219.5"/>
<text text-anchor="middle" x="541" y="139.7" font-family="Times,serif" font-size="14.00">Api::V1::AnnotationCategoriesController</text>
<polyline fill="none" stroke="black" points="420,147.5 662,147.5 "/>
<polyline fill="none" stroke="black" points="420,171.5 662,171.5 "/>
<polyline fill="none" stroke="black" points="420,195.5 662,195.5 "/>
</g>
<!-- Api::V1::BaseController -->
<g id="node4" class="node"><title>Api::V1::BaseController</title>
<path fill="none" stroke="black" d="M-107.5,239.5C-107.5,239.5 77.5,239.5 77.5,239.5 83.5,239.5 89.5,233.5 89.5,227.5 89.5,227.5 89.5,-231.5 89.5,-231.5 89.5,-237.5 83.5,-243.5 77.5,-243.5 77.5,-243.5 -107.5,-243.5 -107.5,-243.5 -113.5,-243.5 -119.5,-237.5 -119.5,-231.5 -119.5,-231.5 -119.5,227.5 -119.5,227.5 -119.5,233.5 -113.5,239.5 -107.5,239.5"/>
<text text-anchor="middle" x="-15" y="-228.3" font-family="Times,serif" font-size="14.00">Api::V1::BaseController</text>
<polyline fill="none" stroke="black" points="-119.5,-220.5 89.5,-220.5 "/>
<text text-anchor="start" x="-111.5" y="-205.3" font-family="Times,serif" font-size="14.00">_process_operations_callbacks</text>
<text text-anchor="start" x="-111.5" y="-190.3" font-family="Times,serif" font-size="14.00">_process_operations_callbacks?</text>
<text text-anchor="start" x="-111.5" y="-175.3" font-family="Times,serif" font-size="14.00">_run_process_operations_callbacks</text>
<text text-anchor="start" x="-111.5" y="-160.3" font-family="Times,serif" font-size="14.00">get_related_resources</text>
<text text-anchor="start" x="-111.5" y="-145.3" font-family="Times,serif" font-size="14.00">index</text>
<text text-anchor="start" x="-111.5" y="-130.3" font-family="Times,serif" font-size="14.00">server_error_callbacks</text>
<text text-anchor="start" x="-111.5" y="-115.3" font-family="Times,serif" font-size="14.00">show</text>
<text text-anchor="start" x="-111.5" y="-100.3" font-family="Times,serif" font-size="14.00">update</text>
<polyline fill="none" stroke="black" points="-119.5,-92.5 89.5,-92.5 "/>
<polyline fill="none" stroke="black" points="-119.5,-68.5 89.5,-68.5 "/>
<text text-anchor="start" x="-111.5" y="-53.3" font-family="Times,serif" font-size="14.00">apply_custom_filter!</text>
<text text-anchor="start" x="-111.5" y="-38.3" font-family="Times,serif" font-size="14.00">base_for_find_objects</text>
<text text-anchor="start" x="-111.5" y="-23.3" font-family="Times,serif" font-size="14.00">context</text>
<text text-anchor="start" x="-111.5" y="-8.3" font-family="Times,serif" font-size="14.00">custom_filter_whitelist</text>
<text text-anchor="start" x="-111.5" y="6.7" font-family="Times,serif" font-size="14.00">default_filter</text>
<text text-anchor="start" x="-111.5" y="21.7" font-family="Times,serif" font-size="14.00">do_includes!</text>
<text text-anchor="start" x="-111.5" y="36.7" font-family="Times,serif" font-size="14.00">filter_objects</text>
<text text-anchor="start" x="-111.5" y="51.7" font-family="Times,serif" font-size="14.00">filter_params</text>
<text text-anchor="start" x="-111.5" y="66.7" font-family="Times,serif" font-size="14.00">filter_whitelist</text>
<text text-anchor="start" x="-111.5" y="81.7" font-family="Times,serif" font-size="14.00">find_objects</text>
<text text-anchor="start" x="-111.5" y="96.7" font-family="Times,serif" font-size="14.00">find_objects_for_related_to</text>
<text text-anchor="start" x="-111.5" y="111.7" font-family="Times,serif" font-size="14.00">get_model_class_for_controller</text>
<text text-anchor="start" x="-111.5" y="126.7" font-family="Times,serif" font-size="14.00">permit_params</text>
<text text-anchor="start" x="-111.5" y="141.7" font-family="Times,serif" font-size="14.00">render_objects_to_json</text>
<text text-anchor="start" x="-111.5" y="156.7" font-family="Times,serif" font-size="14.00">render_results</text>
<text text-anchor="start" x="-111.5" y="171.7" font-family="Times,serif" font-size="14.00">render_single_object_to_json</text>
<text text-anchor="start" x="-111.5" y="186.7" font-family="Times,serif" font-size="14.00">resource_serializer_klass</text>
<text text-anchor="start" x="-111.5" y="201.7" font-family="Times,serif" font-size="14.00">serialization_options</text>
<text text-anchor="start" x="-111.5" y="216.7" font-family="Times,serif" font-size="14.00">set_no_cache_header</text>
<text text-anchor="start" x="-111.5" y="231.7" font-family="Times,serif" font-size="14.00">to_hash_method</text>
</g>
<!-- Api::V1::CategoriesController -->
<g id="node5" class="node"><title>Api::V1::CategoriesController</title>
<path fill="none" stroke="black" d="M-408,-420.5C-408,-420.5 -250,-420.5 -250,-420.5 -244,-420.5 -238,-426.5 -238,-432.5 -238,-432.5 -238,-547.5 -238,-547.5 -238,-553.5 -244,-559.5 -250,-559.5 -250,-559.5 -408,-559.5 -408,-559.5 -414,-559.5 -420,-553.5 -420,-547.5 -420,-547.5 -420,-432.5 -420,-432.5 -420,-426.5 -414,-420.5 -408,-420.5"/>
<text text-anchor="middle" x="-329" y="-544.3" font-family="Times,serif" font-size="14.00">Api::V1::CategoriesController</text>
<polyline fill="none" stroke="black" points="-420,-536.5 -238,-536.5 "/>
<polyline fill="none" stroke="black" points="-420,-512.5 -238,-512.5 "/>
<polyline fill="none" stroke="black" points="-420,-488.5 -238,-488.5 "/>
<text text-anchor="start" x="-412" y="-473.3" font-family="Times,serif" font-size="14.00">apply_custom_filter!</text>
<text text-anchor="start" x="-412" y="-458.3" font-family="Times,serif" font-size="14.00">custom_filter_whitelist</text>
<text text-anchor="start" x="-412" y="-443.3" font-family="Times,serif" font-size="14.00">default_filter</text>
<text text-anchor="start" x="-412" y="-428.3" font-family="Times,serif" font-size="14.00">do_includes!</text>
</g>
<!-- Api::V1::ChaptersController -->
<g id="node6" class="node"><title>Api::V1::ChaptersController</title>
<path fill="none" stroke="black" d="M-328,-80C-328,-80 -180,-80 -180,-80 -174,-80 -168,-86 -168,-92 -168,-92 -168,-236 -168,-236 -168,-242 -174,-248 -180,-248 -180,-248 -328,-248 -328,-248 -334,-248 -340,-242 -340,-236 -340,-236 -340,-92 -340,-92 -340,-86 -334,-80 -328,-80"/>
<text text-anchor="middle" x="-254" y="-232.8" font-family="Times,serif" font-size="14.00">Api::V1::ChaptersController</text>
<polyline fill="none" stroke="black" points="-340,-225 -168,-225 "/>
<text text-anchor="start" x="-332" y="-209.8" font-family="Times,serif" font-size="14.00">create</text>
<text text-anchor="start" x="-332" y="-194.8" font-family="Times,serif" font-size="14.00">destroy</text>
<text text-anchor="start" x="-332" y="-179.8" font-family="Times,serif" font-size="14.00">index</text>
<text text-anchor="start" x="-332" y="-164.8" font-family="Times,serif" font-size="14.00">show</text>
<text text-anchor="start" x="-332" y="-149.8" font-family="Times,serif" font-size="14.00">update</text>
<polyline fill="none" stroke="black" points="-340,-142 -168,-142 "/>
<polyline fill="none" stroke="black" points="-340,-118 -168,-118 "/>
<text text-anchor="start" x="-332" y="-102.8" font-family="Times,serif" font-size="14.00">initialize</text>
<text text-anchor="start" x="-332" y="-87.8" font-family="Times,serif" font-size="14.00">set_no_cache_header</text>
</g>
<!-- Api::V1::ContactInfosController -->
<g id="node7" class="node"><title>Api::V1::ContactInfosController</title>
<path fill="none" stroke="black" d="M472,-380.5C472,-380.5 642,-380.5 642,-380.5 648,-380.5 654,-386.5 654,-392.5 654,-392.5 654,-463.5 654,-463.5 654,-469.5 648,-475.5 642,-475.5 642,-475.5 472,-475.5 472,-475.5 466,-475.5 460,-469.5 460,-463.5 460,-463.5 460,-392.5 460,-392.5 460,-386.5 466,-380.5 472,-380.5"/>
<text text-anchor="middle" x="557" y="-460.3" font-family="Times,serif" font-size="14.00">Api::V1::ContactInfosController</text>
<polyline fill="none" stroke="black" points="460,-452.5 654,-452.5 "/>
<polyline fill="none" stroke="black" points="460,-428.5 654,-428.5 "/>
<polyline fill="none" stroke="black" points="460,-404.5 654,-404.5 "/>
</g>
<!-- Api::V1::EntriesBaseController -->
<g id="node8" class="node"><title>Api::V1::EntriesBaseController</title>
<path fill="none" stroke="black" d="M-328,119C-328,119 -164,119 -164,119 -158,119 -152,113 -152,107 -152,107 -152,-23 -152,-23 -152,-29 -158,-35 -164,-35 -164,-35 -328,-35 -328,-35 -334,-35 -340,-29 -340,-23 -340,-23 -340,107 -340,107 -340,113 -334,119 -328,119"/>
<text text-anchor="middle" x="-246" y="-19.8" font-family="Times,serif" font-size="14.00">Api::V1::EntriesBaseController</text>
<polyline fill="none" stroke="black" points="-340,-12 -152,-12 "/>
<polyline fill="none" stroke="black" points="-340,12 -152,12 "/>
<polyline fill="none" stroke="black" points="-340,36 -152,36 "/>
<text text-anchor="start" x="-332" y="51.2" font-family="Times,serif" font-size="14.00">apply_custom_filter!</text>
<text text-anchor="start" x="-332" y="66.2" font-family="Times,serif" font-size="14.00">custom_filter_whitelist</text>
<text text-anchor="start" x="-332" y="81.2" font-family="Times,serif" font-size="14.00">default_filter</text>
<text text-anchor="start" x="-332" y="96.2" font-family="Times,serif" font-size="14.00">do_includes!</text>
<text text-anchor="start" x="-332" y="111.2" font-family="Times,serif" font-size="14.00">filter_whitelist</text>
</g>
<!-- Api::V1::EntriesController -->
<g id="node9" class="node"><title>Api::V1::EntriesController</title>
<path fill="none" stroke="black" d="M272,-260C272,-260 418,-260 418,-260 424,-260 430,-266 430,-272 430,-272 430,-462 430,-462 430,-468 424,-474 418,-474 418,-474 272,-474 272,-474 266,-474 260,-468 260,-462 260,-462 260,-272 260,-272 260,-266 266,-260 272,-260"/>
<text text-anchor="middle" x="345" y="-458.8" font-family="Times,serif" font-size="14.00">Api::V1::EntriesController</text>
<polyline fill="none" stroke="black" points="260,-451 430,-451 "/>
<polyline fill="none" stroke="black" points="260,-427 430,-427 "/>
<polyline fill="none" stroke="black" points="260,-403 430,-403 "/>
<text text-anchor="start" x="268" y="-387.8" font-family="Times,serif" font-size="14.00">apply_address_filter!</text>
<text text-anchor="start" x="268" y="-372.8" font-family="Times,serif" font-size="14.00">apply_contact_info_filter!</text>
<text text-anchor="start" x="268" y="-357.8" font-family="Times,serif" font-size="14.00">apply_custom_filter!</text>
<text text-anchor="start" x="268" y="-342.8" font-family="Times,serif" font-size="14.00">apply_nested_objects_filter!</text>
<text text-anchor="start" x="268" y="-327.8" font-family="Times,serif" font-size="14.00">base_for_find_objects</text>
<text text-anchor="start" x="268" y="-312.8" font-family="Times,serif" font-size="14.00">custom_filter_whitelist</text>
<text text-anchor="start" x="268" y="-297.8" font-family="Times,serif" font-size="14.00">custom_search_query</text>
<text text-anchor="start" x="268" y="-282.8" font-family="Times,serif" font-size="14.00">do_includes!</text>
<text text-anchor="start" x="268" y="-267.8" font-family="Times,serif" font-size="14.00">filter_whitelist</text>
</g>
<!-- Api::V1::EventsController -->
<g id="node10" class="node"><title>Api::V1::EventsController</title>
<path fill="none" stroke="black" d="M-127.5,-480.5C-127.5,-480.5 9.5,-480.5 9.5,-480.5 15.5,-480.5 21.5,-486.5 21.5,-492.5 21.5,-492.5 21.5,-577.5 21.5,-577.5 21.5,-583.5 15.5,-589.5 9.5,-589.5 9.5,-589.5 -127.5,-589.5 -127.5,-589.5 -133.5,-589.5 -139.5,-583.5 -139.5,-577.5 -139.5,-577.5 -139.5,-492.5 -139.5,-492.5 -139.5,-486.5 -133.5,-480.5 -127.5,-480.5"/>
<text text-anchor="middle" x="-59" y="-574.3" font-family="Times,serif" font-size="14.00">Api::V1::EventsController</text>
<polyline fill="none" stroke="black" points="-139.5,-566.5 21.5,-566.5 "/>
<text text-anchor="start" x="-131.5" y="-551.3" font-family="Times,serif" font-size="14.00">apply_custom_filter!</text>
<text text-anchor="start" x="-131.5" y="-536.3" font-family="Times,serif" font-size="14.00">custom_filter_whitelist</text>
<polyline fill="none" stroke="black" points="-139.5,-528.5 21.5,-528.5 "/>
<polyline fill="none" stroke="black" points="-139.5,-504.5 21.5,-504.5 "/>
</g>
<!-- Api::V1::FacebookEventsController -->
<g id="node11" class="node"><title>Api::V1::FacebookEventsController</title>
<path fill="none" stroke="black" d="M411.5,399C411.5,399 600.5,399 600.5,399 606.5,399 612.5,393 612.5,387 612.5,387 612.5,273 612.5,273 612.5,267 606.5,261 600.5,261 600.5,261 411.5,261 411.5,261 405.5,261 399.5,267 399.5,273 399.5,273 399.5,387 399.5,387 399.5,393 405.5,399 411.5,399"/>
<text text-anchor="middle" x="506" y="276.2" font-family="Times,serif" font-size="14.00">Api::V1::FacebookEventsController</text>
<polyline fill="none" stroke="black" points="399.5,284 612.5,284 "/>
<text text-anchor="start" x="407.5" y="299.2" font-family="Times,serif" font-size="14.00">facebook_events_for_frontend</text>
<text text-anchor="start" x="407.5" y="314.2" font-family="Times,serif" font-size="14.00">index</text>
<polyline fill="none" stroke="black" points="399.5,322 612.5,322 "/>
<polyline fill="none" stroke="black" points="399.5,346 612.5,346 "/>
<text text-anchor="start" x="407.5" y="361.2" font-family="Times,serif" font-size="14.00">ensure_token</text>
<text text-anchor="start" x="407.5" y="376.2" font-family="Times,serif" font-size="14.00">set_cors_headers</text>
<text text-anchor="start" x="407.5" y="391.2" font-family="Times,serif" font-size="14.00">token_to_ensure</text>
</g>
<!-- Api::V1::GeocodingsController -->
<g id="node12" class="node"><title>Api::V1::GeocodingsController</title>
<path fill="none" stroke="black" d="M432,79C432,79 596,79 596,79 602,79 608,73 608,67 608,67 608,-47 608,-47 608,-53 602,-59 596,-59 596,-59 432,-59 432,-59 426,-59 420,-53 420,-47 420,-47 420,67 420,67 420,73 426,79 432,79"/>
<text text-anchor="middle" x="514" y="-43.8" font-family="Times,serif" font-size="14.00">Api::V1::GeocodingsController</text>
<polyline fill="none" stroke="black" points="420,-36 608,-36 "/>
<text text-anchor="start" x="428" y="-20.8" font-family="Times,serif" font-size="14.00">index</text>
<polyline fill="none" stroke="black" points="420,-13 608,-13 "/>
<polyline fill="none" stroke="black" points="420,11 608,11 "/>
<text text-anchor="start" x="428" y="26.2" font-family="Times,serif" font-size="14.00">ensure_token</text>
<text text-anchor="start" x="428" y="41.2" font-family="Times,serif" font-size="14.00">geocoding_params</text>
<text text-anchor="start" x="428" y="56.2" font-family="Times,serif" font-size="14.00">set_cors_headers</text>
<text text-anchor="start" x="428" y="71.2" font-family="Times,serif" font-size="14.00">token_to_ensure</text>
</g>
<!-- Api::V1::MetasController -->
<g id="node13" class="node"><title>Api::V1::MetasController</title>
<path fill="none" stroke="black" d="M532,-521C532,-521 666,-521 666,-521 672,-521 678,-527 678,-533 678,-533 678,-617 678,-617 678,-623 672,-629 666,-629 666,-629 532,-629 532,-629 526,-629 520,-623 520,-617 520,-617 520,-533 520,-533 520,-527 526,-521 532,-521"/>
<text text-anchor="middle" x="599" y="-613.8" font-family="Times,serif" font-size="14.00">Api::V1::MetasController</text>
<polyline fill="none" stroke="black" points="520,-606 678,-606 "/>
<text text-anchor="start" x="528" y="-590.8" font-family="Times,serif" font-size="14.00">index</text>
<polyline fill="none" stroke="black" points="520,-583 678,-583 "/>
<polyline fill="none" stroke="black" points="520,-559 678,-559 "/>
<text text-anchor="start" x="528" y="-543.8" font-family="Times,serif" font-size="14.00">amount_of_chapters</text>
<text text-anchor="start" x="528" y="-528.8" font-family="Times,serif" font-size="14.00">set_no_cache_header</text>
</g>
<!-- Api::V1::OrgasController -->
<g id="node14" class="node"><title>Api::V1::OrgasController</title>
<path fill="none" stroke="black" d="M72.5,-281C72.5,-281 209.5,-281 209.5,-281 215.5,-281 221.5,-287 221.5,-293 221.5,-293 221.5,-497 221.5,-497 221.5,-503 215.5,-509 209.5,-509 209.5,-509 72.5,-509 72.5,-509 66.5,-509 60.5,-503 60.5,-497 60.5,-497 60.5,-293 60.5,-293 60.5,-287 66.5,-281 72.5,-281"/>
<text text-anchor="middle" x="141" y="-493.8" font-family="Times,serif" font-size="14.00">Api::V1::OrgasController</text>
<polyline fill="none" stroke="black" points="60.5,-486 221.5,-486 "/>
<text text-anchor="start" x="68.5" y="-470.8" font-family="Times,serif" font-size="14.00">add_network_member</text>
<text text-anchor="start" x="68.5" y="-455.8" font-family="Times,serif" font-size="14.00">add_partner</text>
<text text-anchor="start" x="68.5" y="-440.8" font-family="Times,serif" font-size="14.00">add_project</text>
<text text-anchor="start" x="68.5" y="-425.8" font-family="Times,serif" font-size="14.00">do_includes!</text>
<text text-anchor="start" x="68.5" y="-410.8" font-family="Times,serif" font-size="14.00">get_actor_relations</text>
<text text-anchor="start" x="68.5" y="-395.8" font-family="Times,serif" font-size="14.00">remove_network_member</text>
<text text-anchor="start" x="68.5" y="-380.8" font-family="Times,serif" font-size="14.00">remove_partner</text>
<text text-anchor="start" x="68.5" y="-365.8" font-family="Times,serif" font-size="14.00">remove_project</text>
<polyline fill="none" stroke="black" points="60.5,-358 221.5,-358 "/>
<polyline fill="none" stroke="black" points="60.5,-334 221.5,-334 "/>
<text text-anchor="start" x="68.5" y="-318.8" font-family="Times,serif" font-size="14.00">add_association</text>
<text text-anchor="start" x="68.5" y="-303.8" font-family="Times,serif" font-size="14.00">get_association</text>
<text text-anchor="start" x="68.5" y="-288.8" font-family="Times,serif" font-size="14.00">remove_association</text>
</g>
<!-- Api::V1::ResourceItemsController -->
<g id="node15" class="node"><title>Api::V1::ResourceItemsController</title>
<path fill="none" stroke="black" d="M431.5,-100.5C431.5,-100.5 612.5,-100.5 612.5,-100.5 618.5,-100.5 624.5,-106.5 624.5,-112.5 624.5,-112.5 624.5,-183.5 624.5,-183.5 624.5,-189.5 618.5,-195.5 612.5,-195.5 612.5,-195.5 431.5,-195.5 431.5,-195.5 425.5,-195.5 419.5,-189.5 419.5,-183.5 419.5,-183.5 419.5,-112.5 419.5,-112.5 419.5,-106.5 425.5,-100.5 431.5,-100.5"/>
<text text-anchor="middle" x="522" y="-180.3" font-family="Times,serif" font-size="14.00">Api::V1::ResourceItemsController</text>
<polyline fill="none" stroke="black" points="419.5,-172.5 624.5,-172.5 "/>
<polyline fill="none" stroke="black" points="419.5,-148.5 624.5,-148.5 "/>
<polyline fill="none" stroke="black" points="419.5,-124.5 624.5,-124.5 "/>
</g>
<!-- Api::V1::SessionsController -->
<g id="node16" class="node"><title>Api::V1::SessionsController</title>
<path fill="none" stroke="black" d="M12,439.5C12,439.5 182,439.5 182,439.5 188,439.5 194,433.5 194,427.5 194,427.5 194,342.5 194,342.5 194,336.5 188,330.5 182,330.5 182,330.5 12,330.5 12,330.5 6,330.5 0,336.5 0,342.5 0,342.5 0,427.5 0,427.5 0,433.5 6,439.5 12,439.5"/>
<text text-anchor="middle" x="97" y="345.7" font-family="Times,serif" font-size="14.00">Api::V1::SessionsController</text>
<polyline fill="none" stroke="black" points="0,353.5 194,353.5 "/>
<polyline fill="none" stroke="black" points="0,377.5 194,377.5 "/>
<polyline fill="none" stroke="black" points="0,401.5 194,401.5 "/>
<text text-anchor="start" x="8" y="416.7" font-family="Times,serif" font-size="14.00">configure_permitted_parameters</text>
<text text-anchor="start" x="8" y="431.7" font-family="Times,serif" font-size="14.00">set_no_cache_header</text>
</g>
<!-- Api::V1::TodosController -->
<g id="node17" class="node"><title>Api::V1::TodosController</title>
<path fill="none" stroke="black" d="M332,-520.5C332,-520.5 466,-520.5 466,-520.5 472,-520.5 478,-526.5 478,-532.5 478,-532.5 478,-631.5 478,-631.5 478,-637.5 472,-643.5 466,-643.5 466,-643.5 332,-643.5 332,-643.5 326,-643.5 320,-637.5 320,-631.5 320,-631.5 320,-532.5 320,-532.5 320,-526.5 326,-520.5 332,-520.5"/>
<text text-anchor="middle" x="399" y="-628.3" font-family="Times,serif" font-size="14.00">Api::V1::TodosController</text>
<polyline fill="none" stroke="black" points="320,-620.5 478,-620.5 "/>
<text text-anchor="start" x="328" y="-605.3" font-family="Times,serif" font-size="14.00">custom_filter_whitelist</text>
<polyline fill="none" stroke="black" points="320,-597.5 478,-597.5 "/>
<polyline fill="none" stroke="black" points="320,-573.5 478,-573.5 "/>
<text text-anchor="start" x="328" y="-558.3" font-family="Times,serif" font-size="14.00">base_for_find_objects</text>
<text text-anchor="start" x="328" y="-543.3" font-family="Times,serif" font-size="14.00">do_includes!</text>
<text text-anchor="start" x="328" y="-528.3" font-family="Times,serif" font-size="14.00">to_hash_method</text>
</g>
<!-- Api::V1::TokenValidationsController -->
<g id="node18" class="node"><title>Api::V1::TokenValidationsController</title>
<path fill="none" stroke="black" d="M471.5,-241C471.5,-241 668.5,-241 668.5,-241 674.5,-241 680.5,-247 680.5,-253 680.5,-253 680.5,-323 680.5,-323 680.5,-329 674.5,-335 668.5,-335 668.5,-335 471.5,-335 471.5,-335 465.5,-335 459.5,-329 459.5,-323 459.5,-323 459.5,-253 459.5,-253 459.5,-247 465.5,-241 471.5,-241"/>
<text text-anchor="middle" x="570" y="-319.8" font-family="Times,serif" font-size="14.00">Api::V1::TokenValidationsController</text>
<polyline fill="none" stroke="black" points="459.5,-312 680.5,-312 "/>
<polyline fill="none" stroke="black" points="459.5,-288 680.5,-288 "/>
<polyline fill="none" stroke="black" points="459.5,-264 680.5,-264 "/>
<text text-anchor="start" x="467.5" y="-248.8" font-family="Times,serif" font-size="14.00">set_no_cache_header</text>
</g>
<!-- Api::V1::TranslationCacheController -->
<g id="node19" class="node"><title>Api::V1::TranslationCacheController</title>
<path fill="none" stroke="black" d="M-187.5,-280.5C-187.5,-280.5 7.5,-280.5 7.5,-280.5 13.5,-280.5 19.5,-286.5 19.5,-292.5 19.5,-292.5 19.5,-421.5 19.5,-421.5 19.5,-427.5 13.5,-433.5 7.5,-433.5 7.5,-433.5 -187.5,-433.5 -187.5,-433.5 -193.5,-433.5 -199.5,-427.5 -199.5,-421.5 -199.5,-421.5 -199.5,-292.5 -199.5,-292.5 -199.5,-286.5 -193.5,-280.5 -187.5,-280.5"/>
<text text-anchor="middle" x="-90" y="-418.3" font-family="Times,serif" font-size="14.00">Api::V1::TranslationCacheController</text>
<polyline fill="none" stroke="black" points="-199.5,-410.5 19.5,-410.5 "/>
<text text-anchor="start" x="-191.5" y="-395.3" font-family="Times,serif" font-size="14.00">index</text>
<text text-anchor="start" x="-191.5" y="-380.3" font-family="Times,serif" font-size="14.00">phraseapp_webhook</text>
<text text-anchor="start" x="-191.5" y="-365.3" font-family="Times,serif" font-size="14.00">update</text>
<polyline fill="none" stroke="black" points="-199.5,-357.5 19.5,-357.5 "/>
<polyline fill="none" stroke="black" points="-199.5,-333.5 19.5,-333.5 "/>
<text text-anchor="start" x="-191.5" y="-318.3" font-family="Times,serif" font-size="14.00">ensure_token</text>
<text text-anchor="start" x="-191.5" y="-303.3" font-family="Times,serif" font-size="14.00">fapi_client</text>
<text text-anchor="start" x="-191.5" y="-288.3" font-family="Times,serif" font-size="14.00">token_to_ensure</text>
</g>
<!-- Api::V1::UsersController -->
<g id="node20" class="node"><title>Api::V1::UsersController</title>
<path fill="none" stroke="black" d="M-507.5,519C-507.5,519 -376.5,519 -376.5,519 -370.5,519 -364.5,513 -364.5,507 -364.5,507 -364.5,437 -364.5,437 -364.5,431 -370.5,425 -376.5,425 -376.5,425 -507.5,425 -507.5,425 -513.5,425 -519.5,431 -519.5,437 -519.5,437 -519.5,507 -519.5,507 -519.5,513 -513.5,519 -507.5,519"/>
<text text-anchor="middle" x="-442" y="440.2" font-family="Times,serif" font-size="14.00">Api::V1::UsersController</text>
<polyline fill="none" stroke="black" points="-519.5,448 -364.5,448 "/>
<text text-anchor="start" x="-511.5" y="463.2" font-family="Times,serif" font-size="14.00">update</text>
<polyline fill="none" stroke="black" points="-519.5,471 -364.5,471 "/>
<polyline fill="none" stroke="black" points="-519.5,495 -364.5,495 "/>
</g>
<!-- ApplicationController -->
<g id="node21" class="node"><title>ApplicationController</title>
<path fill="none" stroke="black" d="M-508,-140.5C-508,-140.5 -396,-140.5 -396,-140.5 -390,-140.5 -384,-146.5 -384,-152.5 -384,-152.5 -384,-223.5 -384,-223.5 -384,-229.5 -390,-235.5 -396,-235.5 -396,-235.5 -508,-235.5 -508,-235.5 -514,-235.5 -520,-229.5 -520,-223.5 -520,-223.5 -520,-152.5 -520,-152.5 -520,-146.5 -514,-140.5 -508,-140.5"/>
<text text-anchor="middle" x="-452" y="-220.3" font-family="Times,serif" font-size="14.00">ApplicationController</text>
<polyline fill="none" stroke="black" points="-520,-212.5 -384,-212.5 "/>
<polyline fill="none" stroke="black" points="-520,-188.5 -384,-188.5 "/>
<polyline fill="none" stroke="black" points="-520,-164.5 -384,-164.5 "/>
</g>
<!-- DataPlugins::Contact::V1::ContactsController -->
<g id="node22" class="node"><title>DataPlugins::Contact::V1::ContactsController</title>
<path fill="none" stroke="black" d="M132,-81C132,-81 374,-81 374,-81 380,-81 386,-87 386,-93 386,-93 386,-207 386,-207 386,-213 380,-219 374,-219 374,-219 132,-219 132,-219 126,-219 120,-213 120,-207 120,-207 120,-93 120,-93 120,-87 126,-81 132,-81"/>
<text text-anchor="middle" x="253" y="-203.8" font-family="Times,serif" font-size="14.00">DataPlugins::Contact::V1::ContactsController</text>
<polyline fill="none" stroke="black" points="120,-196 386,-196 "/>
<text text-anchor="start" x="128" y="-180.8" font-family="Times,serif" font-size="14.00">create</text>
<text text-anchor="start" x="128" y="-165.8" font-family="Times,serif" font-size="14.00">delete</text>
<text text-anchor="start" x="128" y="-150.8" font-family="Times,serif" font-size="14.00">index</text>
<text text-anchor="start" x="128" y="-135.8" font-family="Times,serif" font-size="14.00">update</text>
<polyline fill="none" stroke="black" points="120,-128 386,-128 "/>
<polyline fill="none" stroke="black" points="120,-104 386,-104 "/>
<text text-anchor="start" x="128" y="-88.8" font-family="Times,serif" font-size="14.00">find_owner</text>
</g>
<!-- DataPlugins::Facet::V1::FacetsController -->
<g id="node23" class="node"><title>DataPlugins::Facet::V1::FacetsController</title>
<path fill="none" stroke="black" d="M131.5,299C131.5,299 348.5,299 348.5,299 354.5,299 360.5,293 360.5,287 360.5,287 360.5,173 360.5,173 360.5,167 354.5,161 348.5,161 348.5,161 131.5,161 131.5,161 125.5,161 119.5,167 119.5,173 119.5,173 119.5,287 119.5,287 119.5,293 125.5,299 131.5,299"/>
<text text-anchor="middle" x="240" y="176.2" font-family="Times,serif" font-size="14.00">DataPlugins::Facet::V1::FacetsController</text>
<polyline fill="none" stroke="black" points="119.5,184 360.5,184 "/>
<text text-anchor="start" x="127.5" y="199.2" font-family="Times,serif" font-size="14.00">create</text>
<text text-anchor="start" x="127.5" y="214.2" font-family="Times,serif" font-size="14.00">destroy</text>
<text text-anchor="start" x="127.5" y="229.2" font-family="Times,serif" font-size="14.00">update</text>
<polyline fill="none" stroke="black" points="119.5,237 360.5,237 "/>
<polyline fill="none" stroke="black" points="119.5,261 360.5,261 "/>
<text text-anchor="start" x="127.5" y="276.2" font-family="Times,serif" font-size="14.00">find_facet</text>
<text text-anchor="start" x="127.5" y="291.2" font-family="Times,serif" font-size="14.00">get_model_class_for_controller</text>
</g>
<!-- DataPlugins::Facet::V1::FacetItemsController -->
<g id="node24" class="node"><title>DataPlugins::Facet::V1::FacetItemsController</title>
<path fill="none" stroke="black" d="M132,120C132,120 374,120 374,120 380,120 386,114 386,108 386,108 386,-36 386,-36 386,-42 380,-48 374,-48 374,-48 132,-48 132,-48 126,-48 120,-42 120,-36 120,-36 120,108 120,108 120,114 126,120 132,120"/>
<text text-anchor="middle" x="253" y="-32.8" font-family="Times,serif" font-size="14.00">DataPlugins::Facet::V1::FacetItemsController</text>
<polyline fill="none" stroke="black" points="120,-25 386,-25 "/>
<text text-anchor="start" x="128" y="-9.8" font-family="Times,serif" font-size="14.00">create</text>
<text text-anchor="start" x="128" y="5.2" font-family="Times,serif" font-size="14.00">destroy</text>
<text text-anchor="start" x="128" y="20.2" font-family="Times,serif" font-size="14.00">update</text>
<polyline fill="none" stroke="black" points="120,28 386,28 "/>
<polyline fill="none" stroke="black" points="120,52 386,52 "/>
<text text-anchor="start" x="128" y="67.2" font-family="Times,serif" font-size="14.00">apply_custom_filter!</text>
<text text-anchor="start" x="128" y="82.2" font-family="Times,serif" font-size="14.00">custom_filter_whitelist</text>
<text text-anchor="start" x="128" y="97.2" font-family="Times,serif" font-size="14.00">find_facet_item</text>
<text text-anchor="start" x="128" y="112.2" font-family="Times,serif" font-size="14.00">get_model_class_for_controller</text>
</g>
<!-- DataPlugins::Location::V1::LocationsController -->
<g id="node25" class="node"><title>DataPlugins::Location::V1::LocationsController</title>
<path fill="none" stroke="black" d="M-368,379C-368,379 -114,379 -114,379 -108,379 -102,373 -102,367 -102,367 -102,297 -102,297 -102,291 -108,285 -114,285 -114,285 -368,285 -368,285 -374,285 -380,291 -380,297 -380,297 -380,367 -380,367 -380,373 -374,379 -368,379"/>
<text text-anchor="middle" x="-241" y="300.2" font-family="Times,serif" font-size="14.00">DataPlugins::Location::V1::LocationsController</text>
<polyline fill="none" stroke="black" points="-380,308 -102,308 "/>
<polyline fill="none" stroke="black" points="-380,332 -102,332 "/>
<polyline fill="none" stroke="black" points="-380,356 -102,356 "/>
<text text-anchor="start" x="-372" y="371.2" font-family="Times,serif" font-size="14.00">base_for_find_objects</text>
</g>
</g>
</svg>
