<?xml version="1.0" encoding="UTF-8" standalone="no"?>
<!DOCTYPE svg PUBLIC "-//W3C//DTD SVG 1.1//EN"
 "http://www.w3.org/Graphics/SVG/1.1/DTD/svg11.dtd">
<!-- Generated by graphviz version 2.38.0 (20140413.2041)
 -->
<!-- Title: models_diagram Pages: 1 -->
<svg width="4467pt" height="420pt"
 viewBox="0.00 0.00 4467.32 420.00" xmlns="http://www.w3.org/2000/svg" xmlns:xlink="http://www.w3.org/1999/xlink">
<g id="graph0" class="graph" transform="scale(1 1) rotate(0) translate(4 416)">
<title>models_diagram</title>
<polygon fill="none" stroke="none" points="-4,4 -4,-416 4463.32,-416 4463.32,4 -4,4"/>
<!-- _diagram_info -->
<g id="node1" class="node"><title>_diagram_info</title>
<text text-anchor="start" x="2197.52" y="-397.6" font-family="Times,serif" font-size="13.00">Models diagram</text>
<text text-anchor="start" x="2197.52" y="-383.6" font-family="Times,serif" font-size="13.00">Date: Feb 14 2018 &#45; 11:33</text>
<text text-anchor="start" x="2197.52" y="-369.6" font-family="Times,serif" font-size="13.00">Migration version: 20180207125727</text>
<text text-anchor="start" x="2197.52" y="-355.6" font-family="Times,serif" font-size="13.00">Generated by RailRoady 1.5.3</text>
<text text-anchor="start" x="2197.52" y="-341.6" font-family="Times,serif" font-size="13.00">http://railroady.prestonlee.com</text>
</g>
<!-- Annotation -->
<g id="node2" class="node"><title>Annotation</title>
<ellipse fill="none" stroke="black" cx="2387.52" cy="-105" rx="50.0912" ry="18"/>
<text text-anchor="middle" x="2387.52" y="-101.3" font-family="Times,serif" font-size="14.00">Annotation</text>
</g>
<!-- AnnotationCategory -->
<g id="node3" class="node"><title>AnnotationCategory</title>
<ellipse fill="none" stroke="black" cx="2504.52" cy="-373" rx="82.5854" ry="18"/>
<text text-anchor="middle" x="2504.52" y="-369.3" font-family="Times,serif" font-size="14.00">AnnotationCategory</text>
</g>
<!-- AnnotationCategory&#45;&gt;Annotation -->
<g id="edge1" class="edge"><title>AnnotationCategory&#45;&gt;Annotation</title>
<path fill="none" stroke="#5e1957" d="M2508.51,-346.583C2513.42,-306.797 2517.57,-228.71 2485.52,-174 2477.93,-161.03 2447.43,-140.903 2422.45,-125.907"/>
<ellipse fill="none" stroke="#5e1957" cx="2507.93" cy="-350.961" rx="4.00001" ry="4.00001"/>
<polygon fill="#5e1957" stroke="#5e1957" points="2422.15,-125.731 2415.84,-116.764 2417.85,-123.184 2413.55,-120.637 2413.55,-120.637 2413.55,-120.637 2417.85,-123.184 2411.26,-124.509 2422.15,-125.731 2422.15,-125.731"/>
</g>
<!-- Event -->
<g id="node19" class="node"><title>Event</title>
<ellipse fill="none" stroke="black" cx="2587.52" cy="-192" rx="31.3957" ry="18"/>
<text text-anchor="middle" x="2587.52" y="-188.3" font-family="Times,serif" font-size="14.00">Event</text>
</g>
<!-- AnnotationCategory&#45;&gt;Event -->
<g id="edge2" class="edge"><title>AnnotationCategory&#45;&gt;Event</title>
<path fill="none" stroke="#b5140e" d="M2554.54,-353.202C2598.77,-333.436 2659.96,-297.542 2684.52,-243 2696.39,-216.656 2659.7,-203.955 2628.09,-197.992"/>
<polygon fill="#b5140e" stroke="#b5140e" points="2554.28,-353.317 2543.31,-353.165 2549.69,-355.306 2545.1,-357.294 2545.1,-357.294 2545.1,-357.294 2549.69,-355.306 2546.89,-361.423 2554.28,-353.317 2554.28,-353.317"/>
<polygon fill="#b5140e" stroke="#b5140e" points="2627.93,-197.965 2618.83,-191.848 2623,-197.124 2618.07,-196.283 2618.07,-196.283 2618.07,-196.283 2623,-197.124 2617.32,-200.719 2627.93,-197.965 2627.93,-197.965"/>
</g>
<!-- Orga -->
<g id="node21" class="node"><title>Orga</title>
<ellipse fill="none" stroke="black" cx="1361.52" cy="-279" rx="28.6953" ry="18"/>
<text text-anchor="middle" x="1361.52" y="-275.3" font-family="Times,serif" font-size="14.00">Orga</text>
</g>
<!-- AnnotationCategory&#45;&gt;Orga -->
<g id="edge3" class="edge"><title>AnnotationCategory&#45;&gt;Orga</title>
<path fill="none" stroke="#8114ab" d="M2464.44,-351.964C2448.65,-345.007 2430.11,-337.962 2412.52,-334 2214.13,-289.319 1566.04,-281.512 1400.37,-280.236"/>
<polygon fill="#8114ab" stroke="#8114ab" points="2464.77,-352.117 2472.02,-360.352 2469.33,-354.187 2473.88,-356.256 2473.88,-356.256 2473.88,-356.256 2469.33,-354.187 2475.74,-352.159 2464.77,-352.117 2464.77,-352.117"/>
<polygon fill="#8114ab" stroke="#8114ab" points="1400.16,-280.235 1390.2,-275.661 1395.16,-280.198 1390.16,-280.161 1390.16,-280.161 1390.16,-280.161 1395.16,-280.198 1390.13,-284.661 1400.16,-280.235 1400.16,-280.235"/>
</g>
<!-- ApplicationRecord -->
<g id="node4" class="node"><title>ApplicationRecord</title>
<ellipse fill="none" stroke="black" cx="2682.52" cy="-373" rx="77.1866" ry="18"/>
<text text-anchor="middle" x="2682.52" y="-369.3" font-family="Times,serif" font-size="14.00">ApplicationRecord</text>
</g>
<!-- Category -->
<g id="node5" class="node"><title>Category</title>
<ellipse fill="none" stroke="black" cx="2820.52" cy="-373" rx="42.7926" ry="18"/>
<text text-anchor="middle" x="2820.52" y="-369.3" font-family="Times,serif" font-size="14.00">Category</text>
</g>
<!-- Category&#45;&gt;Category -->
<g id="edge4" class="edge"><title>Category&#45;&gt;Category</title>
<path fill="none" stroke="#7dcb9c" d="M2863.77,-383.292C2873.93,-382.444 2881.42,-379.014 2881.42,-373 2881.42,-367.399 2874.92,-364.039 2865.82,-362.919"/>
<ellipse fill="none" stroke="#7dcb9c" cx="2859.57" cy="-383.366" rx="4" ry="4"/>
<polygon fill="#7dcb9c" stroke="#7dcb9c" points="2865.56,-362.91 2855.72,-358.067 2860.56,-362.737 2855.57,-362.564 2855.57,-362.564 2855.57,-362.564 2860.56,-362.737 2855.41,-367.061 2865.56,-362.91 2865.56,-362.91"/>
<text text-anchor="middle" x="2903.92" y="-369.3" font-family="Times,serif" font-size="14.00">children</text>
</g>
<!-- ContactInfo -->
<g id="node6" class="node"><title>ContactInfo</title>
<ellipse fill="none" stroke="black" cx="2508.52" cy="-105" rx="52.7911" ry="18"/>
<text text-anchor="middle" x="2508.52" y="-101.3" font-family="Times,serif" font-size="14.00">ContactInfo</text>
</g>
<!-- DataModules::Actor::ActorRelation -->
<g id="node7" class="node"><title>DataModules::Actor::ActorRelation</title>
<ellipse fill="none" stroke="black" cx="1362.52" cy="-192" rx="137.576" ry="18"/>
<text text-anchor="middle" x="1362.52" y="-188.3" font-family="Times,serif" font-size="14.00">DataModules::Actor::ActorRelation</text>
</g>
<!-- DataModules::Actor::Concerns::HasActorRelations -->
<g id="node8" class="node"><title>DataModules::Actor::Concerns::HasActorRelations</title>
<polygon fill="none" stroke="black" stroke-dasharray="1,5" points="3241.02,-391 2944.02,-391 2944.02,-355 3241.02,-355 3241.02,-391"/>
<text text-anchor="middle" x="3092.52" y="-369.3" font-family="Times,serif" font-size="14.00">DataModules::Actor::Concerns::HasActorRelations</text>
</g>
<!-- DataPlugins::Contact::Concerns::HasContacts -->
<g id="node9" class="node"><title>DataPlugins::Contact::Concerns::HasContacts</title>
<polygon fill="none" stroke="black" stroke-dasharray="1,5" points="3525.52,-391 3259.52,-391 3259.52,-355 3525.52,-355 3525.52,-391"/>
<text text-anchor="middle" x="3392.52" y="-369.3" font-family="Times,serif" font-size="14.00">DataPlugins::Contact::Concerns::HasContacts</text>
</g>
<!-- DataPlugins::Contact::Contact -->
<g id="node10" class="node"><title>DataPlugins::Contact::Contact</title>
<ellipse fill="none" stroke="black" cx="275.523" cy="-105" rx="118.079" ry="18"/>
<text text-anchor="middle" x="275.523" y="-101.3" font-family="Times,serif" font-size="14.00">DataPlugins::Contact::Contact</text>
</g>
<!-- DataPlugins::Contact::ContactPerson -->
<g id="node11" class="node"><title>DataPlugins::Contact::ContactPerson</title>
<ellipse fill="none" stroke="black" cx="420.523" cy="-18" rx="141.875" ry="18"/>
<text text-anchor="middle" x="420.523" y="-14.3" font-family="Times,serif" font-size="14.00">DataPlugins::Contact::ContactPerson</text>
</g>
<!-- DataPlugins::Contact::Contact&#45;&gt;DataPlugins::Contact::ContactPerson -->
<g id="edge5" class="edge"><title>DataPlugins::Contact::Contact&#45;&gt;DataPlugins::Contact::ContactPerson</title>
<path fill="none" stroke="#4bcdf1" d="M310.933,-83.2425C332.769,-70.4419 360.749,-54.0399 382.971,-41.0132"/>
<ellipse fill="none" stroke="#4bcdf1" cx="307.276" cy="-85.3865" rx="4.00002" ry="4.00002"/>
<polygon fill="#4bcdf1" stroke="#4bcdf1" points="383.17,-40.8965 394.073,-39.7214 387.484,-38.3679 391.797,-35.8393 391.797,-35.8393 391.797,-35.8393 387.484,-38.3679 389.522,-31.9571 383.17,-40.8965 383.17,-40.8965"/>
<text text-anchor="middle" x="401.523" y="-57.8" font-family="Times,serif" font-size="14.00">contact_persons</text>
</g>
<!-- DataPlugins::Facet::Concerns::HasFacetItems -->
<g id="node12" class="node"><title>DataPlugins::Facet::Concerns::HasFacetItems</title>
<polygon fill="none" stroke="black" stroke-dasharray="1,5" points="3809.52,-391 3543.52,-391 3543.52,-355 3809.52,-355 3809.52,-391"/>
<text text-anchor="middle" x="3676.52" y="-369.3" font-family="Times,serif" font-size="14.00">DataPlugins::Facet::Concerns::HasFacetItems</text>
</g>
<!-- DataPlugins::Facet::Facet -->
<g id="node13" class="node"><title>DataPlugins::Facet::Facet</title>
<ellipse fill="none" stroke="black" cx="1932.52" cy="-192" rx="101.282" ry="18"/>
<text text-anchor="middle" x="1932.52" y="-188.3" font-family="Times,serif" font-size="14.00">DataPlugins::Facet::Facet</text>
</g>
<!-- DataPlugins::Facet::FacetItem -->
<g id="node14" class="node"><title>DataPlugins::Facet::FacetItem</title>
<ellipse fill="none" stroke="black" cx="1704.52" cy="-105" rx="118.079" ry="18"/>
<text text-anchor="middle" x="1704.52" y="-101.3" font-family="Times,serif" font-size="14.00">DataPlugins::Facet::FacetItem</text>
</g>
<!-- DataPlugins::Facet::Facet&#45;&gt;DataPlugins::Facet::FacetItem -->
<g id="edge6" class="edge"><title>DataPlugins::Facet::Facet&#45;&gt;DataPlugins::Facet::FacetItem</title>
<path fill="none" stroke="#83f344" d="M1883.33,-172.659C1845.86,-158.693 1794.42,-139.515 1756.33,-125.314"/>
<ellipse fill="none" stroke="#83f344" cx="1887.22" cy="-174.111" rx="4.00001" ry="4.00001"/>
<polygon fill="#83f344" stroke="#83f344" points="1756.32,-125.31 1748.52,-117.6 1751.63,-123.564 1746.95,-121.817 1746.95,-121.817 1746.95,-121.817 1751.63,-123.564 1745.38,-126.034 1756.32,-125.31 1756.32,-125.31"/>
</g>
<!-- DataPlugins::Facet::OwnerFacetItem -->
<g id="node15" class="node"><title>DataPlugins::Facet::OwnerFacetItem</title>
<ellipse fill="none" stroke="black" cx="1932.52" cy="-18" rx="141.875" ry="18"/>
<text text-anchor="middle" x="1932.52" y="-14.3" font-family="Times,serif" font-size="14.00">DataPlugins::Facet::OwnerFacetItem</text>
</g>
<!-- DataPlugins::Facet::Facet&#45;&gt;DataPlugins::Facet::OwnerFacetItem -->
<g id="edge7" class="edge"><title>DataPlugins::Facet::Facet&#45;&gt;DataPlugins::Facet::OwnerFacetItem</title>
<path fill="none" stroke="#620b99" d="M1932.52,-163.643C1932.52,-131.408 1932.52,-78.182 1932.52,-46.0711"/>
<polygon fill="#620b99" stroke="#620b99" points="1932.52,-163.879 1928.02,-173.879 1932.52,-168.879 1932.52,-173.879 1932.52,-173.879 1932.52,-173.879 1932.52,-168.879 1937.02,-173.879 1932.52,-163.879 1932.52,-163.879"/>
<polygon fill="#620b99" stroke="#620b99" points="1932.52,-46.0516 1937.02,-36.0516 1932.52,-41.0516 1932.52,-36.0516 1932.52,-36.0516 1932.52,-36.0516 1932.52,-41.0516 1928.02,-36.0516 1932.52,-46.0516 1932.52,-46.0516"/>
<text text-anchor="middle" x="1984.52" y="-101.3" font-family="Times,serif" font-size="14.00">owner_facet_items</text>
</g>
<!-- DataPlugins::Facet::FacetItem&#45;&gt;DataPlugins::Facet::FacetItem -->
<g id="edge8" class="edge"><title>DataPlugins::Facet::FacetItem&#45;&gt;DataPlugins::Facet::FacetItem</title>
<path fill="none" stroke="#2f2d0b" d="M1821.07,-111.501C1833.11,-110.224 1840.81,-108.057 1840.81,-105 1840.81,-102.116 1833.96,-100.024 1823.07,-98.7245"/>
<ellipse fill="none" stroke="#2f2d0b" cx="1817.03" cy="-111.843" rx="4" ry="4"/>
<polygon fill="#2f2d0b" stroke="#2f2d0b" points="1823,-98.7184 1813.45,-93.3373 1818.02,-98.2687 1813.05,-97.8191 1813.05,-97.8191 1813.05,-97.8191 1818.02,-98.2687 1812.64,-102.301 1823,-98.7184 1823,-98.7184"/>
<text text-anchor="middle" x="1868.81" y="-101.3" font-family="Times,serif" font-size="14.00">sub_items</text>
</g>
<!-- DataPlugins::Facet::FacetItem&#45;&gt;DataPlugins::Facet::OwnerFacetItem -->
<g id="edge9" class="edge"><title>DataPlugins::Facet::FacetItem&#45;&gt;DataPlugins::Facet::OwnerFacetItem</title>
<path fill="none" stroke="#a185c6" d="M1744.59,-84.1746C1765.2,-74.3905 1790.9,-62.8257 1814.52,-54 1830.59,-47.9996 1848.18,-42.3217 1864.75,-37.3539"/>
<ellipse fill="none" stroke="#a185c6" cx="1740.84" cy="-85.9643" rx="4.00002" ry="4.00002"/>
<polygon fill="#a185c6" stroke="#a185c6" points="1864.79,-37.344 1875.65,-38.83 1869.58,-35.929 1874.38,-34.5139 1874.38,-34.5139 1874.38,-34.5139 1869.58,-35.929 1873.11,-30.1979 1864.79,-37.344 1864.79,-37.344"/>
<text text-anchor="middle" x="1866.52" y="-57.8" font-family="Times,serif" font-size="14.00">owner_facet_items</text>
</g>
<!-- DataPlugins::Location::Concerns::HasLocations -->
<g id="node16" class="node"><title>DataPlugins::Location::Concerns::HasLocations</title>
<polygon fill="none" stroke="black" stroke-dasharray="1,5" points="4105.52,-391 3827.52,-391 3827.52,-355 4105.52,-355 4105.52,-391"/>
<text text-anchor="middle" x="3966.52" y="-369.3" font-family="Times,serif" font-size="14.00">DataPlugins::Location::Concerns::HasLocations</text>
</g>
<!-- DataPlugins::Location::Location -->
<g id="node17" class="node"><title>DataPlugins::Location::Location</title>
<ellipse fill="none" stroke="black" cx="275.523" cy="-192" rx="126.178" ry="18"/>
<text text-anchor="middle" x="275.523" y="-188.3" font-family="Times,serif" font-size="14.00">DataPlugins::Location::Location</text>
</g>
<!-- DataPlugins::Location::Location&#45;&gt;DataPlugins::Contact::Contact -->
<g id="edge10" class="edge"><title>DataPlugins::Location::Location&#45;&gt;DataPlugins::Contact::Contact</title>
<path fill="none" stroke="#0cb6d3" d="M275.523,-165.694C275.523,-155.512 275.523,-143.747 275.523,-133.367"/>
<ellipse fill="none" stroke="#0cb6d3" cx="275.523" cy="-169.799" rx="4" ry="4"/>
<polygon fill="#0cb6d3" stroke="#0cb6d3" points="275.523,-133.175 280.023,-123.175 275.523,-128.175 275.523,-123.175 275.523,-123.175 275.523,-123.175 275.523,-128.175 271.023,-123.175 275.523,-133.175 275.523,-133.175"/>
<text text-anchor="middle" x="298.023" y="-144.8" font-family="Times,serif" font-size="14.00">contacts</text>
</g>
<!-- Entry -->
<g id="node18" class="node"><title>Entry</title>
<ellipse fill="none" stroke="black" cx="4154.52" cy="-373" rx="30.5947" ry="18"/>
<text text-anchor="middle" x="4154.52" y="-369.3" font-family="Times,serif" font-size="14.00">Entry</text>
</g>
<!-- Event&#45;&gt;Annotation -->
<g id="edge13" class="edge"><title>Event&#45;&gt;Annotation</title>
<path fill="none" stroke="#3ff46f" d="M2555.34,-177.323C2520.74,-162.618 2465.65,-139.206 2428.1,-123.247"/>
<ellipse fill="none" stroke="#3ff46f" cx="2559.32" cy="-179.013" rx="4.00001" ry="4.00001"/>
<polygon fill="#3ff46f" stroke="#3ff46f" points="2427.69,-123.07 2420.25,-115.017 2423.09,-121.115 2418.49,-119.159 2418.49,-119.159 2418.49,-119.159 2423.09,-121.115 2416.73,-123.3 2427.69,-123.07 2427.69,-123.07"/>
</g>
<!-- Event&#45;&gt;ContactInfo -->
<g id="edge12" class="edge"><title>Event&#45;&gt;ContactInfo</title>
<path fill="none" stroke="#89e97c" d="M2567.86,-169.842C2556.6,-157.726 2542.43,-142.484 2530.77,-129.932"/>
<ellipse fill="none" stroke="#89e97c" cx="2570.68" cy="-172.874" rx="4.00002" ry="4.00002"/>
<polygon fill="#89e97c" stroke="#89e97c" points="2530.68,-129.841 2527.17,-119.453 2527.28,-126.179 2523.87,-122.516 2523.87,-122.516 2523.87,-122.516 2527.28,-126.179 2520.58,-125.58 2530.68,-129.841 2530.68,-129.841"/>
</g>
<!-- Event&#45;&gt;Event -->
<g id="edge14" class="edge"><title>Event&#45;&gt;Event</title>
<path fill="none" stroke="#523b23" d="M2623.89,-199.586C2631.36,-198.774 2636.72,-196.245 2636.72,-192 2636.72,-188.197 2632.42,-185.772 2626.15,-184.723"/>
<ellipse fill="none" stroke="#523b23" cx="2619.83" cy="-199.708" rx="4" ry="4"/>
<polygon fill="#523b23" stroke="#523b23" points="2625.82,-184.706 2616.07,-179.679 2620.83,-184.439 2615.83,-184.173 2615.83,-184.173 2615.83,-184.173 2620.83,-184.439 2615.59,-188.667 2625.82,-184.706 2625.82,-184.706"/>
<text text-anchor="middle" x="2659.22" y="-188.3" font-family="Times,serif" font-size="14.00">children</text>
</g>
<!-- Location -->
<g id="node20" class="node"><title>Location</title>
<ellipse fill="none" stroke="black" cx="2621.52" cy="-105" rx="42.4939" ry="18"/>
<text text-anchor="middle" x="2621.52" y="-101.3" font-family="Times,serif" font-size="14.00">Location</text>
</g>
<!-- Event&#45;&gt;Location -->
<g id="edge11" class="edge"><title>Event&#45;&gt;Location</title>
<path fill="none" stroke="#9f52fa" d="M2597.35,-166.44C2601.61,-155.793 2606.6,-143.306 2610.94,-132.455"/>
<ellipse fill="none" stroke="#9f52fa" cx="2595.73" cy="-170.493" rx="4.00001" ry="4.00001"/>
<polygon fill="#9f52fa" stroke="#9f52fa" points="2610.99,-132.334 2618.88,-124.721 2612.85,-127.692 2614.7,-123.049 2614.7,-123.049 2614.7,-123.049 2612.85,-127.692 2610.53,-121.378 2610.99,-132.334 2610.99,-132.334"/>
</g>
<!-- Orga&#45;&gt;Annotation -->
<g id="edge19" class="edge"><title>Orga&#45;&gt;Annotation</title>
<path fill="none" stroke="#9cb663" d="M1398.55,-277.852C1532.35,-277.08 1990.44,-272.308 2133.52,-243 2174.44,-234.618 2185.44,-231.041 2221.52,-210 2243.05,-197.445 2243.97,-188.095 2264.52,-174 2291.83,-155.281 2324.73,-137.304 2349.64,-124.541"/>
<ellipse fill="none" stroke="#9cb663" cx="1394.21" cy="-277.876" rx="4" ry="4"/>
<polygon fill="#9cb663" stroke="#9cb663" points="2349.85,-124.436 2360.8,-123.927 2354.31,-122.175 2358.76,-119.913 2358.76,-119.913 2358.76,-119.913 2354.31,-122.175 2356.73,-115.9 2349.85,-124.436 2349.85,-124.436"/>
</g>
<!-- Orga&#45;&gt;ContactInfo -->
<g id="edge18" class="edge"><title>Orga&#45;&gt;ContactInfo</title>
<path fill="none" stroke="#19103c" d="M1398.66,-278.043C1537.06,-277.949 2022.66,-275.274 2173.52,-243 2212.34,-234.695 2222.67,-230.732 2256.52,-210 2277.2,-197.336 2276.43,-185.968 2297.52,-174 2311.96,-165.807 2402.76,-137.775 2460.45,-120.363"/>
<ellipse fill="none" stroke="#19103c" cx="1394.43" cy="-278.045" rx="4" ry="4"/>
<polygon fill="#19103c" stroke="#19103c" points="2460.53,-120.339 2471.41,-121.763 2465.32,-118.896 2470.11,-117.454 2470.11,-117.454 2470.11,-117.454 2465.32,-118.896 2468.81,-113.145 2460.53,-120.339 2460.53,-120.339"/>
</g>
<!-- Orga&#45;&gt;DataModules::Actor::ActorRelation -->
<g id="edge22" class="edge"><title>Orga&#45;&gt;DataModules::Actor::ActorRelation</title>
<path fill="none" stroke="#237353" d="M1324.62,-277.873C1233.65,-276.916 1008.65,-270.304 1046.52,-228 1058.93,-214.148 1145.81,-205.182 1225.33,-199.796"/>
<ellipse fill="none" stroke="#237353" cx="1328.74" cy="-277.911" rx="4" ry="4"/>
<polygon fill="#237353" stroke="#237353" points="1225.51,-199.784 1235.79,-203.614 1230.5,-199.454 1235.49,-199.124 1235.49,-199.124 1235.49,-199.124 1230.5,-199.454 1235.19,-194.634 1225.51,-199.784 1225.51,-199.784"/>
<text text-anchor="middle" x="1139.52" y="-231.8" font-family="Times,serif" font-size="14.00">actor_relations_i_have_associated</text>
</g>
<!-- Orga&#45;&gt;DataModules::Actor::ActorRelation -->
<g id="edge23" class="edge"><title>Orga&#45;&gt;DataModules::Actor::ActorRelation</title>
<path fill="none" stroke="#092c64" d="M1325,-274.082C1286.97,-268.459 1235.54,-255.567 1255.52,-228 1260.28,-221.436 1266.31,-216.08 1273.07,-211.713"/>
<ellipse fill="none" stroke="#092c64" cx="1329.4" cy="-274.689" rx="4.00001" ry="4.00001"/>
<polygon fill="#092c64" stroke="#092c64" points="1273.27,-211.601 1284.19,-210.615 1277.62,-209.148 1281.98,-206.694 1281.98,-206.694 1281.98,-206.694 1277.62,-209.148 1279.77,-202.773 1273.27,-211.601 1273.27,-211.601"/>
<text text-anchor="middle" x="1352.52" y="-231.8" font-family="Times,serif" font-size="14.00">actor_relations_that_associated_me</text>
</g>
<!-- Orga&#45;&gt;DataModules::Actor::ActorRelation -->
<g id="edge26" class="edge"><title>Orga&#45;&gt;DataModules::Actor::ActorRelation</title>
<path fill="none" stroke="#e1d297" d="M1397.56,-273.352C1416.39,-268.89 1437.89,-260.143 1449.52,-243 1458.44,-229.864 1449.98,-219.745 1435.4,-212.159"/>
<ellipse fill="none" stroke="#e1d297" cx="1393.6" cy="-274.188" rx="4.00001" ry="4.00001"/>
<polygon fill="#e1d297" stroke="#e1d297" points="1435.29,-212.112 1428.04,-203.884 1430.74,-210.047 1426.18,-207.982 1426.18,-207.982 1426.18,-207.982 1430.74,-210.047 1424.32,-212.08 1435.29,-212.112 1435.29,-212.112"/>
<text text-anchor="middle" x="1499.02" y="-231.8" font-family="Times,serif" font-size="14.00">project_relations</text>
</g>
<!-- Orga&#45;&gt;DataModules::Actor::ActorRelation -->
<g id="edge27" class="edge"><title>Orga&#45;&gt;DataModules::Actor::ActorRelation</title>
<path fill="none" stroke="#dc8894" d="M1398.42,-276.495C1447.38,-273.635 1529.83,-265.522 1548.52,-243 1552.78,-237.871 1552.78,-233.131 1548.52,-228 1539.27,-216.837 1514.28,-209.211 1485.51,-204.01"/>
<ellipse fill="none" stroke="#dc8894" cx="1394.27" cy="-276.722" rx="4" ry="4"/>
<polygon fill="#dc8894" stroke="#dc8894" points="1485.48,-204.006 1476.37,-197.901 1480.55,-203.172 1475.62,-202.338 1475.62,-202.338 1475.62,-202.338 1480.55,-203.172 1474.87,-206.775 1485.48,-204.006 1485.48,-204.006"/>
<text text-anchor="middle" x="1625.52" y="-231.8" font-family="Times,serif" font-size="14.00">project_initiators_relations</text>
</g>
<!-- Orga&#45;&gt;DataModules::Actor::ActorRelation -->
<g id="edge30" class="edge"><title>Orga&#45;&gt;DataModules::Actor::ActorRelation</title>
<path fill="none" stroke="#8676f7" d="M1398.48,-276.946C1482.55,-274.166 1682.43,-265.263 1702.52,-243 1732.05,-210.285 1614.27,-198.677 1509.36,-194.71"/>
<ellipse fill="none" stroke="#8676f7" cx="1394.24" cy="-277.082" rx="4" ry="4"/>
<polygon fill="#8676f7" stroke="#8676f7" points="1509.25,-194.706 1499.42,-189.853 1504.25,-194.528 1499.26,-194.35 1499.26,-194.35 1499.26,-194.35 1504.25,-194.528 1499.1,-198.847 1509.25,-194.706 1509.25,-194.706"/>
<text text-anchor="middle" x="1783.02" y="-231.8" font-family="Times,serif" font-size="14.00">network_member_relations</text>
</g>
<!-- Orga&#45;&gt;DataModules::Actor::ActorRelation -->
<g id="edge31" class="edge"><title>Orga&#45;&gt;DataModules::Actor::ActorRelation</title>
<path fill="none" stroke="#564c7d" d="M1398.46,-278.25C1508.92,-278.615 1831.05,-276.753 1862.52,-243 1867.07,-238.124 1867.07,-232.876 1862.52,-228 1838.77,-202.524 1649.13,-195.224 1510.41,-193.33"/>
<ellipse fill="none" stroke="#564c7d" cx="1394.26" cy="-278.233" rx="4" ry="4"/>
<polygon fill="#564c7d" stroke="#564c7d" points="1510.09,-193.326 1500.15,-188.698 1505.09,-193.262 1500.09,-193.198 1500.09,-193.198 1500.09,-193.198 1505.09,-193.262 1500.03,-197.698 1510.09,-193.326 1510.09,-193.326"/>
<text text-anchor="middle" x="1915.52" y="-231.8" font-family="Times,serif" font-size="14.00">network_relations</text>
</g>
<!-- Orga&#45;&gt;DataModules::Actor::ActorRelation -->
<g id="edge34" class="edge"><title>Orga&#45;&gt;DataModules::Actor::ActorRelation</title>
<path fill="none" stroke="#08c231" d="M1324.7,-277.708C1175.65,-276.347 623.862,-269.527 598.523,-243 593.918,-238.179 593.918,-232.821 598.523,-228 619.471,-206.07 999.746,-197.615 1215.72,-194.571"/>
<ellipse fill="none" stroke="#08c231" cx="1328.71" cy="-277.743" rx="4" ry="4"/>
<polygon fill="#08c231" stroke="#08c231" points="1215.88,-194.569 1225.94,-198.93 1220.88,-194.499 1225.88,-194.43 1225.88,-194.43 1225.88,-194.43 1220.88,-194.499 1225.82,-189.93 1215.88,-194.569 1215.88,-194.569"/>
<text text-anchor="middle" x="697.023" y="-231.8" font-family="Times,serif" font-size="14.00">partner_relations_i_have_associated</text>
</g>
<!-- Orga&#45;&gt;DataModules::Actor::ActorRelation -->
<g id="edge35" class="edge"><title>Orga&#45;&gt;DataModules::Actor::ActorRelation</title>
<path fill="none" stroke="#084ed9" d="M1324.54,-278.393C1210.02,-279.228 866.939,-278.704 833.523,-243 828.968,-238.133 828.967,-232.867 833.523,-228 859.193,-200.575 1067.24,-193.895 1214.63,-192.654"/>
<ellipse fill="none" stroke="#084ed9" cx="1328.7" cy="-278.36" rx="4" ry="4"/>
<polygon fill="#084ed9" stroke="#084ed9" points="1214.69,-192.654 1224.72,-197.077 1219.69,-192.615 1224.69,-192.577 1224.69,-192.577 1224.69,-192.577 1219.69,-192.615 1224.65,-188.077 1214.69,-192.654 1214.69,-192.654"/>
<text text-anchor="middle" x="936.023" y="-231.8" font-family="Times,serif" font-size="14.00">partner_relations_that_associated_me</text>
</g>
<!-- Orga&#45;&gt;DataPlugins::Contact::Contact -->
<g id="edge38" class="edge"><title>Orga&#45;&gt;DataPlugins::Contact::Contact</title>
<path fill="none" stroke="#e1895b" d="M1324.82,-277.494C1121.09,-274.505 136.956,-257.629 95.5232,-210 58.7981,-167.782 132.578,-138.555 196.483,-122.069"/>
<ellipse fill="none" stroke="#e1895b" cx="1328.84" cy="-277.552" rx="4" ry="4"/>
<polygon fill="#e1895b" stroke="#e1895b" points="196.53,-122.057 207.323,-123.996 201.38,-120.844 206.231,-119.631 206.231,-119.631 206.231,-119.631 201.38,-120.844 205.139,-115.265 196.53,-122.057 196.53,-122.057"/>
<text text-anchor="middle" x="118.023" y="-188.3" font-family="Times,serif" font-size="14.00">contacts</text>
</g>
<!-- Orga&#45;&gt;DataPlugins::Contact::Contact -->
<g id="edge39" class="edge"><title>Orga&#45;&gt;DataPlugins::Contact::Contact</title>
<path fill="none" stroke="#9a58ec" d="M1324.2,-278.295C1182.83,-279.126 680.491,-279.392 525.523,-243 490.466,-234.767 481.841,-229.433 451.523,-210 431.108,-196.914 430.625,-187.564 410.523,-174 382.287,-154.948 347.98,-137.735 321.015,-125.393"/>
<ellipse fill="none" stroke="#9a58ec" cx="1328.6" cy="-278.268" rx="4" ry="4"/>
<ellipse fill="#9a58ec" stroke="#9a58ec" cx="317.26" cy="-123.694" rx="4.00002" ry="4.00002"/>
<text text-anchor="middle" x="488.523" y="-188.3" font-family="Times,serif" font-size="14.00">main_contact</text>
</g>
<!-- Orga&#45;&gt;DataPlugins::Contact::Contact -->
<g id="edge40" class="edge"><title>Orga&#45;&gt;DataPlugins::Contact::Contact</title>
<path fill="none" stroke="#6330ca" d="M1324.73,-277.816C1149.65,-276.804 399.734,-270.891 167.523,-243 97.593,-234.601 56.839,-264.744 12.5232,-210 -34.8967,-151.421 69.1003,-125.7 159.985,-114.494"/>
<ellipse fill="none" stroke="#6330ca" cx="1328.87" cy="-277.839" rx="4" ry="4"/>
<polygon fill="#6330ca" stroke="#6330ca" points="160.211,-114.467 170.67,-117.763 165.177,-113.881 170.142,-113.294 170.142,-113.294 170.142,-113.294 165.177,-113.881 169.614,-108.825 160.211,-114.467 160.211,-114.467"/>
<text text-anchor="middle" x="47.5232" y="-188.3" font-family="Times,serif" font-size="14.00">sub_contacts</text>
</g>
<!-- Orga&#45;&gt;DataPlugins::Contact::ContactPerson -->
<g id="edge41" class="edge"><title>Orga&#45;&gt;DataPlugins::Contact::ContactPerson</title>
<path fill="none" stroke="#7034a3" d="M1322.58,-278.226C1174.23,-278.82 649.625,-278.378 584.523,-243 561.848,-230.678 465.266,-74.4491 449.523,-54 447.049,-50.7856 444.399,-47.4509 441.743,-44.1737"/>
<polygon fill="#7034a3" stroke="#7034a3" points="1322.6,-278.226 1332.62,-282.682 1327.6,-278.204 1332.6,-278.182 1332.6,-278.182 1332.6,-278.182 1327.6,-278.204 1332.58,-273.682 1322.6,-278.226 1322.6,-278.226"/>
<polygon fill="#7034a3" stroke="#7034a3" points="441.578,-43.973 438.705,-33.3902 438.403,-40.1102 435.229,-36.2475 435.229,-36.2475 435.229,-36.2475 438.403,-40.1102 431.752,-39.1048 441.578,-43.973 441.578,-43.973"/>
<text text-anchor="middle" x="561.523" y="-144.8" font-family="Times,serif" font-size="14.00">contact_persons</text>
</g>
<!-- Orga&#45;&gt;DataPlugins::Facet::Facet -->
<g id="edge44" class="edge"><title>Orga&#45;&gt;DataPlugins::Facet::Facet</title>
<path fill="none" stroke="#869bcb" d="M1400.49,-277.209C1531.49,-274.362 1948.99,-263.695 1968.52,-243 1976.1,-234.979 1971.72,-225.306 1963.81,-216.614"/>
<polygon fill="#869bcb" stroke="#869bcb" points="1400.13,-277.217 1390.04,-272.932 1395.13,-277.324 1390.13,-277.431 1390.13,-277.431 1390.13,-277.431 1395.13,-277.324 1390.23,-281.93 1400.13,-277.217 1400.13,-277.217"/>
<polygon fill="#869bcb" stroke="#869bcb" points="1963.71,-216.528 1959.62,-206.356 1960.11,-213.065 1956.5,-209.602 1956.5,-209.602 1956.5,-209.602 1960.11,-213.065 1953.38,-212.848 1963.71,-216.528 1963.71,-216.528"/>
<text text-anchor="middle" x="1987.52" y="-231.8" font-family="Times,serif" font-size="14.00">facets</text>
</g>
<!-- Orga&#45;&gt;DataPlugins::Facet::FacetItem -->
<g id="edge43" class="edge"><title>Orga&#45;&gt;DataPlugins::Facet::FacetItem</title>
<path fill="none" stroke="#f05ce1" d="M1322.59,-277.705C1169.64,-276.359 617,-269.661 591.523,-243 586.917,-238.18 587.073,-232.964 591.523,-228 656.646,-155.348 1304.18,-121.615 1580.55,-110.441"/>
<polygon fill="#f05ce1" stroke="#f05ce1" points="1322.9,-277.708 1332.86,-282.293 1327.9,-277.75 1332.9,-277.793 1332.9,-277.793 1332.9,-277.793 1327.9,-277.75 1332.94,-273.293 1322.9,-277.708 1322.9,-277.708"/>
<polygon fill="#f05ce1" stroke="#f05ce1" points="1580.63,-110.437 1590.81,-114.533 1585.63,-110.237 1590.63,-110.037 1590.63,-110.037 1590.63,-110.037 1585.63,-110.237 1590.45,-105.54 1580.63,-110.437 1580.63,-110.437"/>
<text text-anchor="middle" x="797.523" y="-188.3" font-family="Times,serif" font-size="14.00">facet_items</text>
</g>
<!-- Orga&#45;&gt;DataPlugins::Facet::OwnerFacetItem -->
<g id="edge42" class="edge"><title>Orga&#45;&gt;DataPlugins::Facet::OwnerFacetItem</title>
<path fill="none" stroke="#7d8b08" d="M1398.06,-277.482C1526.35,-275.463 1951.53,-267.01 2007.52,-243 2072.66,-215.073 2075.49,-148.643 2040.52,-87 2028.57,-65.9304 2007.13,-50.4552 1986.49,-39.6387"/>
<ellipse fill="none" stroke="#7d8b08" cx="1394.04" cy="-277.544" rx="4" ry="4"/>
<polygon fill="#7d8b08" stroke="#7d8b08" points="1986.37,-39.5797 1979.41,-31.1076 1981.89,-37.3597 1977.41,-35.1398 1977.41,-35.1398 1977.41,-35.1398 1981.89,-37.3597 1975.41,-39.1719 1986.37,-39.5797 1986.37,-39.5797"/>
<text text-anchor="middle" x="2114.52" y="-144.8" font-family="Times,serif" font-size="14.00">owner_facet_items</text>
</g>
<!-- Orga&#45;&gt;DataPlugins::Location::Location -->
<g id="edge17" class="edge"><title>Orga&#45;&gt;DataPlugins::Location::Location</title>
<path fill="none" stroke="#b82907" d="M1324.79,-277.631C1157.02,-275.818 467.762,-266.963 374.523,-243 351.869,-237.178 328.423,-225.623 310.037,-215.086"/>
<ellipse fill="none" stroke="#b82907" cx="1328.84" cy="-277.674" rx="4" ry="4"/>
<polygon fill="#b82907" stroke="#b82907" points="309.795,-214.944 303.465,-205.989 305.488,-212.405 301.18,-209.866 301.18,-209.866 301.18,-209.866 305.488,-212.405 298.895,-213.743 309.795,-214.944 309.795,-214.944"/>
<text text-anchor="middle" x="399.023" y="-231.8" font-family="Times,serif" font-size="14.00">locations</text>
</g>
<!-- Orga&#45;&gt;Event -->
<g id="edge16" class="edge"><title>Orga&#45;&gt;Event</title>
<path fill="none" stroke="#cdbfda" d="M1398.65,-277.409C1552.54,-274.841 2140.96,-263.838 2325.52,-243 2405.81,-233.935 2498.36,-214.001 2549.16,-202.224"/>
<ellipse fill="none" stroke="#cdbfda" cx="1394.39" cy="-277.479" rx="4" ry="4"/>
<polygon fill="#cdbfda" stroke="#cdbfda" points="2549.31,-202.189 2560.08,-204.294 2554.18,-201.05 2559.05,-199.912 2559.05,-199.912 2559.05,-199.912 2554.18,-201.05 2558.03,-195.53 2549.31,-202.189 2549.31,-202.189"/>
</g>
<!-- Orga&#45;&gt;Orga -->
<g id="edge20" class="edge"><title>Orga&#45;&gt;Orga</title>
<path fill="none" stroke="#f948bb" d="M1398.36,-280.377C1404.16,-280.173 1408.12,-279.714 1408.12,-279 1408.12,-278.365 1404.99,-277.932 1400.22,-277.7"/>
<ellipse fill="none" stroke="#f948bb" cx="1394.19" cy="-280.44" rx="4" ry="4"/>
<polygon fill="#f948bb" stroke="#f948bb" points="1400.19,-277.7 1390.28,-273.001 1395.19,-277.6 1390.19,-277.5 1390.19,-277.5 1390.19,-277.5 1395.19,-277.6 1390.1,-281.999 1400.19,-277.7 1400.19,-277.7"/>
<text text-anchor="middle" x="1430.62" y="-275.3" font-family="Times,serif" font-size="14.00">children</text>
</g>
<!-- Orga&#45;&gt;Orga -->
<g id="edge24" class="edge"><title>Orga&#45;&gt;Orga</title>
<path fill="none" stroke="#f0f97b" d="M1400.07,-281.815C1425.82,-282.435 1453.12,-281.497 1453.12,-279 1453.12,-276.503 1425.82,-275.565 1400.07,-276.185"/>
<polygon fill="#f0f97b" stroke="#f0f97b" points="1399.96,-281.811 1390.11,-276.988 1394.96,-281.649 1389.96,-281.486 1389.96,-281.486 1389.96,-281.486 1394.96,-281.649 1389.82,-285.983 1399.96,-281.811 1399.96,-281.811"/>
<polygon fill="#f0f97b" stroke="#f0f97b" points="1399.96,-276.189 1389.82,-272.017 1394.96,-276.351 1389.96,-276.514 1389.96,-276.514 1389.96,-276.514 1394.96,-276.351 1390.11,-281.012 1399.96,-276.189 1399.96,-276.189"/>
<text text-anchor="middle" x="1522.12" y="-275.3" font-family="Times,serif" font-size="14.00">actors_i_have_associated</text>
</g>
<!-- Orga&#45;&gt;Orga -->
<g id="edge25" class="edge"><title>Orga&#45;&gt;Orga</title>
<path fill="none" stroke="#293238" d="M1400.42,-282.065C1467.44,-284.716 1591.12,-283.694 1591.12,-279 1591.12,-274.306 1467.44,-273.284 1400.42,-275.935"/>
<polygon fill="#293238" stroke="#293238" points="1400.17,-282.054 1390.38,-277.112 1395.17,-281.831 1390.18,-281.608 1390.18,-281.608 1390.18,-281.608 1395.17,-281.831 1389.97,-286.103 1400.17,-282.054 1400.17,-282.054"/>
<polygon fill="#293238" stroke="#293238" points="1400.17,-275.946 1389.97,-271.897 1395.17,-276.169 1390.18,-276.392 1390.18,-276.392 1390.18,-276.392 1395.17,-276.169 1390.38,-280.888 1400.17,-275.946 1400.17,-275.946"/>
<text text-anchor="middle" x="1664.12" y="-275.3" font-family="Times,serif" font-size="14.00">actors_that_associated_me</text>
</g>
<!-- Orga&#45;&gt;Orga -->
<g id="edge28" class="edge"><title>Orga&#45;&gt;Orga</title>
<path fill="none" stroke="#f9fd26" d="M1400.13,-282.294C1498.19,-286.784 1737.12,-285.686 1737.12,-279 1737.12,-272.314 1498.19,-271.216 1400.13,-275.706"/>
<polygon fill="#f9fd26" stroke="#f9fd26" points="1399.98,-282.287 1390.22,-277.287 1394.99,-282.034 1389.99,-281.781 1389.99,-281.781 1389.99,-281.781 1394.99,-282.034 1389.76,-286.276 1399.98,-282.287 1399.98,-282.287"/>
<polygon fill="#f9fd26" stroke="#f9fd26" points="1399.98,-275.713 1389.76,-271.724 1394.99,-275.966 1389.99,-276.219 1389.99,-276.219 1389.99,-276.219 1394.99,-275.966 1390.22,-280.713 1399.98,-275.713 1399.98,-275.713"/>
<text text-anchor="middle" x="1758.62" y="-275.3" font-family="Times,serif" font-size="14.00">projects</text>
</g>
<!-- Orga&#45;&gt;Orga -->
<g id="edge29" class="edge"><title>Orga&#45;&gt;Orga</title>
<path fill="none" stroke="#df4270" d="M1399.94,-282.833C1506.48,-288.774 1780.12,-287.496 1780.12,-279 1780.12,-270.504 1506.48,-269.226 1399.94,-275.167"/>
<polygon fill="#df4270" stroke="#df4270" points="1399.85,-282.827 1390.15,-277.724 1394.86,-282.521 1389.87,-282.215 1389.87,-282.215 1389.87,-282.215 1394.86,-282.521 1389.6,-286.707 1399.85,-282.827 1399.85,-282.827"/>
<polygon fill="#df4270" stroke="#df4270" points="1399.85,-275.173 1389.6,-271.293 1394.86,-275.479 1389.87,-275.785 1389.87,-275.785 1389.87,-275.785 1394.86,-275.479 1390.15,-280.276 1399.85,-275.173 1399.85,-275.173"/>
<text text-anchor="middle" x="1826.62" y="-275.3" font-family="Times,serif" font-size="14.00">project_initiators</text>
</g>
<!-- Orga&#45;&gt;Orga -->
<g id="edge32" class="edge"><title>Orga&#45;&gt;Orga</title>
<path fill="none" stroke="#7dddd6" d="M1399.79,-283.143C1522.54,-290.789 1873.12,-289.408 1873.12,-279 1873.12,-268.592 1522.54,-267.211 1399.79,-274.857"/>
<polygon fill="#7dddd6" stroke="#7dddd6" points="1399.63,-283.132 1389.96,-277.962 1394.64,-282.792 1389.66,-282.452 1389.66,-282.452 1389.66,-282.452 1394.64,-282.792 1389.35,-286.941 1399.63,-283.132 1399.63,-283.132"/>
<polygon fill="#7dddd6" stroke="#7dddd6" points="1399.63,-274.868 1389.35,-271.059 1394.64,-275.208 1389.66,-275.548 1389.66,-275.548 1389.66,-275.548 1394.64,-275.208 1389.96,-280.038 1399.63,-274.868 1399.63,-274.868"/>
<text text-anchor="middle" x="1898.12" y="-275.3" font-family="Times,serif" font-size="14.00">networks</text>
</g>
<!-- Orga&#45;&gt;Orga -->
<g id="edge33" class="edge"><title>Orga&#45;&gt;Orga</title>
<path fill="none" stroke="#32f85e" d="M1399.71,-283.542C1531.13,-292.787 1923.12,-291.273 1923.12,-279 1923.12,-266.727 1531.13,-265.213 1399.71,-274.458"/>
<polygon fill="#32f85e" stroke="#32f85e" points="1399.58,-283.533 1389.96,-278.28 1394.6,-283.15 1389.61,-282.767 1389.61,-282.767 1389.61,-282.767 1394.6,-283.15 1389.27,-287.254 1399.58,-283.533 1399.58,-283.533"/>
<polygon fill="#32f85e" stroke="#32f85e" points="1399.58,-274.467 1389.27,-270.746 1394.6,-274.85 1389.61,-275.233 1389.61,-275.233 1389.61,-275.233 1394.6,-274.85 1389.96,-279.72 1399.58,-274.467 1399.58,-274.467"/>
<text text-anchor="middle" x="1974.62" y="-275.3" font-family="Times,serif" font-size="14.00">network_members</text>
</g>
<!-- Orga&#45;&gt;Orga -->
<g id="edge36" class="edge"><title>Orga&#45;&gt;Orga</title>
<path fill="none" stroke="#4ffe32" d="M1399.5,-283.743C1546.53,-294.802 2026.12,-293.221 2026.12,-279 2026.12,-264.779 1546.53,-263.198 1399.5,-274.257"/>
<polygon fill="#4ffe32" stroke="#4ffe32" points="1399.47,-283.74 1389.87,-278.44 1394.48,-283.333 1389.5,-282.925 1389.5,-282.925 1389.5,-282.925 1394.48,-283.333 1389.13,-287.41 1399.47,-283.74 1399.47,-283.74"/>
<polygon fill="#4ffe32" stroke="#4ffe32" points="1399.47,-274.26 1389.13,-270.59 1394.48,-274.667 1389.5,-275.075 1389.5,-275.075 1389.5,-275.075 1394.48,-274.667 1389.87,-279.56 1399.47,-274.26 1399.47,-274.26"/>
<text text-anchor="middle" x="2100.62" y="-275.3" font-family="Times,serif" font-size="14.00">partners_i_have_associated</text>
</g>
<!-- Orga&#45;&gt;Orga -->
<g id="edge37" class="edge"><title>Orga&#45;&gt;Orga</title>
<path fill="none" stroke="#766c4d" d="M1399.94,-283.875C1568.04,-296.819 2175.12,-295.194 2175.12,-279 2175.12,-262.806 1568.04,-261.181 1399.94,-274.125"/>
<polygon fill="#766c4d" stroke="#766c4d" points="1399.7,-283.856 1390.11,-278.538 1394.72,-283.439 1389.74,-283.022 1389.74,-283.022 1389.74,-283.022 1394.72,-283.439 1389.36,-287.507 1399.7,-283.856 1399.7,-283.856"/>
<polygon fill="#766c4d" stroke="#766c4d" points="1399.7,-274.144 1389.36,-270.493 1394.72,-274.561 1389.74,-274.978 1389.74,-274.978 1389.74,-274.978 1394.72,-274.561 1390.11,-279.462 1399.7,-274.144 1399.7,-274.144"/>
<text text-anchor="middle" x="2253.62" y="-275.3" font-family="Times,serif" font-size="14.00">partners_that_associated_me</text>
</g>
<!-- OwnerThingRelation -->
<g id="node23" class="node"><title>OwnerThingRelation</title>
<ellipse fill="none" stroke="black" cx="2391.52" cy="-192" rx="85.2851" ry="18"/>
<text text-anchor="middle" x="2391.52" y="-188.3" font-family="Times,serif" font-size="14.00">OwnerThingRelation</text>
</g>
<!-- Orga&#45;&gt;OwnerThingRelation -->
<g id="edge15" class="edge"><title>Orga&#45;&gt;OwnerThingRelation</title>
<path fill="none" stroke="#2d3de8" d="M1398.5,-277.543C1560.68,-275.413 2205.02,-265.589 2292.52,-243 2315.6,-237.044 2339.49,-225.163 2358.03,-214.476"/>
<ellipse fill="none" stroke="#2d3de8" cx="1394.26" cy="-277.598" rx="4" ry="4"/>
<polygon fill="#2d3de8" stroke="#2d3de8" points="2358.07,-214.454 2368.97,-213.229 2362.37,-211.906 2366.67,-209.357 2366.67,-209.357 2366.67,-209.357 2362.37,-211.906 2364.38,-205.486 2358.07,-214.454 2358.07,-214.454"/>
</g>
<!-- ResourceItem -->
<g id="node24" class="node"><title>ResourceItem</title>
<ellipse fill="none" stroke="black" cx="2152.52" cy="-192" rx="59.5901" ry="18"/>
<text text-anchor="middle" x="2152.52" y="-188.3" font-family="Times,serif" font-size="14.00">ResourceItem</text>
</g>
<!-- Orga&#45;&gt;ResourceItem -->
<g id="edge21" class="edge"><title>Orga&#45;&gt;ResourceItem</title>
<path fill="none" stroke="#77f510" d="M1398.24,-278.001C1539.92,-277.774 2046.39,-274.729 2110.52,-243 2121.41,-237.612 2130.55,-227.97 2137.49,-218.581"/>
<ellipse fill="none" stroke="#77f510" cx="1394.21" cy="-278.007" rx="4" ry="4"/>
<polygon fill="#77f510" stroke="#77f510" points="2137.6,-218.422 2146.95,-212.695 2140.41,-214.291 2143.23,-210.16 2143.23,-210.16 2143.23,-210.16 2140.41,-214.291 2139.51,-207.624 2137.6,-218.422 2137.6,-218.422"/>
</g>
<!-- OrgaType -->
<g id="node22" class="node"><title>OrgaType</title>
<ellipse fill="none" stroke="black" cx="4249.52" cy="-373" rx="46.2923" ry="18"/>
<text text-anchor="middle" x="4249.52" y="-369.3" font-family="Times,serif" font-size="14.00">OrgaType</text>
</g>
<!-- TranslationCache -->
<g id="node25" class="node"><title>TranslationCache</title>
<ellipse fill="none" stroke="black" cx="4386.52" cy="-373" rx="72.5877" ry="18"/>
<text text-anchor="middle" x="4386.52" y="-369.3" font-family="Times,serif" font-size="14.00">TranslationCache</text>
</g>
<!-- User -->
<g id="node26" class="node"><title>User</title>
<ellipse fill="none" stroke="black" cx="2587.52" cy="-279" rx="27.0966" ry="18"/>
<text text-anchor="middle" x="2587.52" y="-275.3" font-family="Times,serif" font-size="14.00">User</text>
</g>
<!-- User&#45;&gt;Event -->
<g id="edge46" class="edge"><title>User&#45;&gt;Event</title>
<path fill="none" stroke="#22b511" d="M2624.36,-271.792C2641.12,-266.929 2659.42,-258.295 2669.52,-243 2683.07,-222.492 2653.83,-209.024 2626.59,-201.288"/>
<polygon fill="#22b511" stroke="#22b511" points="2623.91,-271.906 2613.12,-269.995 2619.07,-273.132 2614.22,-274.358 2614.22,-274.358 2614.22,-274.358 2619.07,-273.132 2615.32,-278.721 2623.91,-271.906 2623.91,-271.906"/>
<polygon fill="#22b511" stroke="#22b511" points="2626.39,-201.238 2617.87,-194.343 2621.56,-199.966 2616.72,-198.695 2616.72,-198.695 2616.72,-198.695 2621.56,-199.966 2615.58,-203.047 2626.39,-201.238 2626.39,-201.238"/>
</g>
<!-- User&#45;&gt;Event -->
<g id="edge47" class="edge"><title>User&#45;&gt;Event</title>
<path fill="none" stroke="#71678d" d="M2585.11,-252.876C2584.87,-249.558 2584.66,-246.199 2584.52,-243 2584.21,-235.645 2584.43,-227.687 2584.87,-220.328"/>
<ellipse fill="none" stroke="#71678d" cx="2585.44" cy="-256.942" rx="4" ry="4"/>
<polygon fill="#71678d" stroke="#71678d" points="2584.89,-220.089 2590.11,-210.45 2585.26,-215.103 2585.63,-210.117 2585.63,-210.117 2585.63,-210.117 2585.26,-215.103 2581.14,-209.784 2584.89,-220.089 2584.89,-220.089"/>
<text text-anchor="middle" x="2625.02" y="-231.8" font-family="Times,serif" font-size="14.00">created_events</text>
</g>
<!-- User&#45;&gt;OwnerThingRelation -->
<g id="edge45" class="edge"><title>User&#45;&gt;OwnerThingRelation</title>
<path fill="none" stroke="#448407" d="M2557.89,-265.148C2525.72,-251.198 2473.97,-228.757 2436.73,-212.605"/>
<ellipse fill="none" stroke="#448407" cx="2561.75" cy="-266.823" rx="4.00002" ry="4.00002"/>
<polygon fill="#448407" stroke="#448407" points="2436.29,-212.415 2428.91,-204.307 2431.7,-210.425 2427.12,-208.436 2427.12,-208.436 2427.12,-208.436 2431.7,-210.425 2425.33,-212.564 2436.29,-212.415 2436.29,-212.415"/>
</g>
</g>
</svg>
